<svg id="Layer_1" data-name="Layer 1" xmlns="http://www.w3.org/2000/svg" xmlns:xlink="http://www.w3.org/1999/xlink" viewBox="0 0 7642.28 7127.72"><defs><style>.cls-1{fill:none;}.cls-2{clip-path:url(#clip-path);}.cls-11,.cls-3,.cls-5{fill:#e07f09;}.cls-12,.cls-14,.cls-4,.cls-6{fill:#c8500d;}.cls-14,.cls-5,.cls-6,.cls-8{fill-rule:evenodd;}.cls-7,.cls-8{fill:#bebebe;}.cls-9{fill:#ffd194;}.cls-10{fill:#d9d9d9;}.cls-11{fill-opacity:0.9;}.cls-12{fill-opacity:0.6;}.cls-13,.cls-14{opacity:0.6;}.cls-14{isolation:isolate;}</style><clipPath id="clip-path"><rect class="cls-1" x="-4528.44" y="0.01" width="17254.46" height="7127.71"/></clipPath></defs><g class="cls-2"><path class="cls-3" d="M5610.17-71.58H4501.72L1430.62,7129H2539.13Z"/><path class="cls-3" d="M5985.09-71.58H5700.86L2629.81,7129H2914Z"/><path class="cls-4" d="M4515.24-71.58h-13.52L1430.62,7129h13.53Z"/><path class="cls-4" d="M4538.23-71.58h-13.52L1453.63,7129h13.54Z"/><path class="cls-4" d="M4561.22-71.58H4547.7L1476.64,7129h13.53Z"/><path class="cls-4" d="M4584.29-71.58h-13.6L1499.65,7129h13.53Z"/><path class="cls-4" d="M4607.28-71.58h-13.52L1522.65,7129h13.54Z"/><path class="cls-4" d="M4630.27-71.58h-13.52L1545.67,7129h13.53Z"/><path class="cls-4" d="M4653.26-71.58h-13.52L1568.67,7129h13.54Z"/><path class="cls-4" d="M4676.33-71.58h-13.6L1591.69,7129h13.53Z"/><path class="cls-4" d="M4699.32-71.58H4685.8L1614.69,7129h13.54Z"/><path class="cls-4" d="M4722.31-71.58h-13.52L1637.71,7129h13.53Z"/><path class="cls-4" d="M4745.3-71.58h-13.52L1660.71,7129h13.53Z"/><path class="cls-4" d="M4768.37-71.58h-13.6L1683.72,7129h13.54Z"/><path class="cls-4" d="M4791.36-71.58h-13.52L1706.73,7129h13.53Z"/><path class="cls-3" d="M7782.53-71.58H6028.45L2957.36,7129H4711.49Z"/><path class="cls-5" d="M4826.52,7129H8127.7L9830.4,3136.78V-71.58H7897.64Z"/><path class="cls-6" d="M6524.92-71.58h13.52L4369,5014.84H4355.5Zm-23.07,0h13.6L4346,5014.84h-13.53Zm-23,0h13.52L4323.05,5014.84h-13.53Zm-23,0h13.52L4300.06,5014.84h-13.61Zm-23,0h13.52L4277,5014.84h-13.53Zm-23.07,0h13.6L4254,5014.84h-13.53Zm-23,0h13.52L4231,5014.84h-13.53Zm-23,0h13.53L4208,5014.84h-13.61Zm-23,0h13.53L4185,5014.84h-13.53Zm-23,0h13.52L4162,5014.84h-13.53Zm-23.07,0h13.53L4139,5014.84h-13.53Zm-23,0h13.52L4116,5014.84h-13.61Zm-9.47,0L4092.91,5014.84h-13.52L6248.8-71.58Z"/><path class="cls-7" d="M783-71.58h13.53L-739,3528.7h-13.53Z"/><path class="cls-7" d="M760-71.58H773.5L-762,3528.7h-13.53Z"/><path class="cls-7" d="M737-71.58h13.53L-785,3528.7h-13.53Z"/><path class="cls-7" d="M714-71.58h13.53L-808,3528.7h-13.54Z"/><path class="cls-7" d="M690.94-71.58h13.53L-831.06,3528.7H-844.6Z"/><path class="cls-7" d="M667.93-71.58h13.53L-854.07,3528.7h-13.54Z"/><path class="cls-7" d="M644.92-71.58h13.53L-877.08,3528.7h-13.54Z"/><path class="cls-7" d="M621.91-71.58h13.53L-900.09,3528.7h-13.54Z"/><path class="cls-7" d="M598.9-71.58h13.54L-923.1,3528.7h-13.54Z"/><path class="cls-7" d="M575.89-71.58h13.54L-946.11,3528.7h-13.53Z"/><path class="cls-7" d="M552.88-71.58h13.54L-969.12,3528.7h-13.54Z"/><path class="cls-7" d="M529.87-71.58h13.54L-992.13,3528.7h-13.53Z"/><path class="cls-7" d="M506.86-71.58H520.4L-1015.14,3528.7h-13.54Z"/><path class="cls-7" d="M483.85-71.58h13.54L-1038.15,3528.7h-13.53Z"/><path class="cls-7" d="M460.85-71.58h13.53L-1061.16,3528.7h-13.54Z"/><path class="cls-7" d="M437.83-71.58h13.54L-1084.17,3528.7h-13.53Z"/><path class="cls-7" d="M414.83-71.58h13.53L-1107.18,3528.7h-13.53Z"/><path class="cls-7" d="M391.81-71.58h13.54L-1130.18,3528.7h-13.54Z"/><path class="cls-7" d="M368.81-71.58h13.53L-1153.2,3528.7h-13.53Z"/><path class="cls-7" d="M345.79-71.58h13.54L-1176.2,3528.7h-13.54Z"/><path class="cls-7" d="M322.79-71.58h13.53L-1199.22,3528.7h-13.53Z"/><path class="cls-7" d="M299.78-71.58h13.53L-1222.22,3528.7h-13.54Z"/><path class="cls-7" d="M276.77-71.58h13.54L-1245.24,3528.7h-13.53Z"/><path class="cls-7" d="M253.76-71.58h13.53L-1268.24,3528.7h-13.54Z"/><path class="cls-7" d="M230.75-71.58h13.54L-1291.26,3528.7h-13.53Z"/><path class="cls-7" d="M207.74-71.58h13.53L-1314.26,3528.7h-13.53Z"/><path class="cls-7" d="M184.73-71.58h13.54L-1337.27,3528.7h-13.54Z"/><path class="cls-7" d="M161.72-71.58h13.53L-1360.28,3528.7h-13.53Z"/><path class="cls-7" d="M138.72-71.58h13.53L-1383.29,3528.7h-13.54Z"/><path class="cls-7" d="M115.7-71.58h13.54L-1406.3,3528.7h-13.53Z"/><path class="cls-7" d="M92.7-71.58h13.53L-1429.31,3528.7h-13.54Z"/><path class="cls-7" d="M69.68-71.58H83.22L-1452.32,3528.7h-13.53Z"/><path class="cls-7" d="M46.68-71.58H60.21L-1475.33,3528.7h-13.53Z"/><path class="cls-7" d="M23.66-71.58H37.2L-1498.33,3528.7h-13.54Z"/><path class="cls-7" d="M.66-71.58H14.19L-1521.35,3528.7h-13.53Z"/><path class="cls-8" d="M-908.37,7053.2h-13.54L1901.52,433.27h13.53Zm23,0H-898.9L1924.53,433.27h13.53Zm23,0h-13.54L1947.53,433.27h13.54Zm23,0h-13.53L1970.55,433.27h13.53Zm23,0h-13.53L1993.55,433.27h13.54Zm23,0h-13.54L2016.57,433.27h13.53Zm23,0h-13.53L2039.57,433.27h13.54Zm23,0h-13.54L2062.59,433.27h13.53Zm23,0h-13.53L2085.59,433.27h13.53Zm23,0h-13.54L2108.6,433.27h13.54Zm23,0h-13.53L2131.61,433.27h13.53Zm23,0h-13.54L2154.62,433.27h13.54Zm23,0H-645.8L2177.63,433.27h13.53Zm23,0h-13.54L2200.64,433.27h13.54Zm23,0h-13.54L2223.65,433.27h13.53Zm23,0h-13.54L2246.66,433.27h13.53Zm23,0h-13.54L2269.66,433.27h13.54Zm23,0h-13.53L2292.68,433.27h13.53Zm23,0h-13.53L2315.68,433.27h13.54Zm23,0h-13.53L2338.7,433.27h13.53Zm23,0h-13.53L2361.7,433.27h13.54Zm23,0h-13.54L2384.72,433.27h13.53Zm23,0H-415.7L2407.72,433.27h13.53Zm23,0h-13.53L2430.73,433.27h13.54Zm23,0h-13.53L2453.74,433.27h13.53Zm23,0h-13.54L2476.75,433.27h13.54Zm23,0h-13.54L2499.76,433.27h13.53Zm23,0h-13.54L2522.77,433.27h13.54Zm23,0h-13.54L2545.78,433.27h13.53Zm23,0h-13.54L2568.79,433.27h13.53Zm23,0h-13.54L2591.79,433.27h13.54Zm23,0h-13.54L2614.81,433.27h13.53Zm23,0h-13.53L2637.81,433.27h13.54Zm23,0H-162.6L2660.83,433.27h13.53Zm23,0h-13.53L2683.83,433.27h13.54Zm23,0h-13.54L2706.85,433.27h13.53Zm23,0H-93.57L2729.85,433.27h13.54Zm23,0H-70.56L2752.86,433.27h13.54Zm23,0H-47.55L2775.87,433.27h13.54Zm23,0H-24.54L2798.88,433.27h13.54Zm23,0H-1.54L2821.89,433.27h13.53Zm23,0H21.48L2844.9,433.27h13.54Zm23,0H44.48L2867.91,433.27h13.53Zm23,0H67.5L2890.92,433.27h13.53Zm23,0H90.5L2913.93,433.27h13.53Zm23,0H113.52L2936.94,433.27h13.53Zm23,0H136.52L2959.94,433.27h13.54Zm23,0H159.53L2983,433.27h13.53Zm23,0H182.54L3006,433.27h13.54Zm23,0H205.55L3029,433.27h13.53Zm23,0H228.56L3052,433.27h13.54Zm23,0H251.57L3075,433.27h13.54Zm23,0H274.58L3098,433.27h13.54Zm23,0H297.59L3121,433.27h13.54Zm23,0H320.59L3144,433.27h13.54Zm23,0H343.61L3167,433.27h13.54Zm23,0H366.61L3190,433.27h13.54Zm23,0H389.63L3213.05,433.27h13.53Zm23,0H412.63L3236.06,433.27h13.54Zm23,0H435.65L3259.07,433.27h13.53Zm23,0H458.65L3282.08,433.27h13.54Zm23,0H481.66L3305.09,433.27h13.53Zm23,0H504.67L3328.1,433.27h13.54Zm23,0H527.68L3351.11,433.27h13.53Zm23,0H550.69L3374.12,433.27h13.53Zm23,0H573.7L3397.12,433.27h13.54Zm23,0H596.71L3420.14,433.27h13.54Zm23,0H619.72L3443.14,433.27h13.53Zm23,0H642.72L3466.13,433.27h13.52Zm23,0H665.74L3489.2,433.27h13.52Zm23,0H688.74L3512.19,433.27h13.52Zm23,0H711.76L3535.18,433.27h13.52Zm23,0H734.76L3558.17,433.27h13.52Zm23,0H757.78L3581.16,433.27h13.6Zm23,0H780.78L3604.23,433.27h13.52Zm23,0H803.79L3627.22,433.27h13.52Zm23,0H826.8L3650.21,433.27h13.52Zm23,0H849.81L3673.2,433.27h13.6Zm23,0H872.82L3696.27,433.27h13.52Zm23,0H895.83L3719.26,433.27h13.52Zm23,0H918.84L3742.25,433.27h13.52Zm23,0H941.85L3765.24,433.27h13.6Zm23,0H964.86L3788.31,433.27h13.52Zm23,0H987.87L3811.3,433.27h13.52Zm23,0h-13.54L3834.29,433.27h13.52Zm23,0h-13.53L3857.28,433.27h13.6Zm23,0h-13.54L3880.35,433.27h13.52Zm23,0h-13.53L3903.34,433.27h13.52Zm23,0h-13.54L3926.33,433.27h13.52Zm23,0h-13.53L3949.32,433.27h13.6Zm23,0h-13.54L3972.39,433.27h13.52Zm23,0h-13.54L3995.38,433.27h13.52Zm23,0H1195L4018.37,433.27h13.52Zm23,0H1218L4041.36,433.27h13.52Zm23,0H1241L4064.43,433.27H4078Zm23,0H1264L4087.42,433.27h13.52Z"/><path class="cls-9" d="M15804.62,7155.56H1246.94L4305.63,0h11499Z"/><path class="cls-10" d="M-6071.71,0H4488.59L1429.88,7155.56H-6071.71Z"/><path class="cls-11" d="M5065.73-71.58h-564L1430.62,7129h564.07Z"/><path class="cls-11" d="M5009.65-71.58h56.08L1994.69,7129h-56.12Z"/><path class="cls-12" d="M4515.24-71.58h-13.52L1430.62,7129h13.53Z"/><path class="cls-12" d="M4561.22-71.58H4547.7L1476.64,7129h13.53Z"/><path class="cls-12" d="M4607.28-71.58h-13.52L1522.65,7129h13.54Z"/><path class="cls-12" d="M4653.26-71.58h-13.52L1568.67,7129h13.54Z"/><path class="cls-12" d="M4699.32-71.58H4685.8L1614.69,7129h13.54Z"/><path class="cls-12" d="M4745.3-71.58h-13.52L1660.71,7129h13.53Z"/><path class="cls-12" d="M4791.36-71.58h-13.52L1706.73,7129h13.53Z"/><path class="cls-11" d="M10308.1-71.58H5367.62L2296.54,7129H7237.05Z"/><path class="cls-11" d="M5256.65-71.58h-195.3L1990.27,7129h195.34Z"/><path class="cls-11" d="M11238.52-71.58h-823L7344.45,7129h823Z"/><path class="cls-7" d="M1562.57-71.58h13.53L40.57,3528.7H27Z"/><path class="cls-7" d="M1516.55-71.58h13.53L-5.45,3528.7H-19Z"/><path class="cls-7" d="M1470.53-71.58h13.53L-51.47,3528.7H-65Z"/><path class="cls-7" d="M1424.51-71.58H1438L-97.49,3528.7H-111Z"/><path class="cls-7" d="M1378.49-71.58H1392L-143.51,3528.7H-157Z"/><path class="cls-7" d="M1332.47-71.58H1346L-189.52,3528.7h-13.54Z"/><path class="cls-7" d="M1286.45-71.58H1300L-235.54,3528.7h-13.54Z"/><path class="cls-7" d="M1240.44-71.58H1254L-281.56,3528.7H-295.1Z"/><path class="cls-7" d="M1194.42-71.58H1208L-327.58,3528.7h-13.53Z"/><path class="cls-7" d="M1148.4-71.58h13.53L-373.6,3528.7h-13.53Z"/><path class="cls-7" d="M1102.38-71.58h13.53L-419.62,3528.7h-13.53Z"/><path class="cls-7" d="M1056.36-71.58h13.54L-465.64,3528.7h-13.53Z"/><path class="cls-7" d="M1010.34-71.58h13.54L-511.65,3528.7h-13.54Z"/><path class="cls-7" d="M964.32-71.58h13.54L-557.67,3528.7h-13.54Z"/><path class="cls-7" d="M918.3-71.58h13.54L-603.69,3528.7h-13.54Z"/><path class="cls-7" d="M872.29-71.58h13.53L-649.71,3528.7h-13.54Z"/><path class="cls-7" d="M826.27-71.58H839.8L-695.73,3528.7h-13.54Z"/><path class="cls-7" d="M780.25-71.58h13.53L-741.75,3528.7h-13.54Z"/><path class="cls-7" d="M734.23-71.58h13.54L-787.77,3528.7h-13.54Z"/><path class="cls-7" d="M688.21-71.58h13.54L-833.79,3528.7h-13.54Z"/><path class="cls-7" d="M642.19-71.58h13.54L-879.81,3528.7h-13.53Z"/><path class="cls-7" d="M596.17-71.58h13.54L-925.83,3528.7h-13.53Z"/><path class="cls-7" d="M550.16-71.58h13.53L-971.85,3528.7h-13.53Z"/><path class="cls-7" d="M504.14-71.58h13.53L-1017.86,3528.7h-13.54Z"/><path class="cls-7" d="M458.12-71.58h13.53L-1063.88,3528.7h-13.54Z"/><path class="cls-7" d="M412.1-71.58h13.53L-1109.9,3528.7h-13.54Z"/><path class="cls-7" d="M366.08-71.58h13.54L-1155.92,3528.7h-13.54Z"/><path class="cls-7" d="M320.06-71.58H333.6L-1201.94,3528.7h-13.54Z"/><path class="cls-7" d="M274-71.58h13.54L-1248,3528.7h-13.54Z"/><path class="cls-7" d="M228-71.58h13.53L-1294,3528.7h-13.54Z"/><path class="cls-7" d="M1943.09,592.37h-13.53L-1141.52,7793H-1128Z"/><path class="cls-7" d="M1989.11,592.37h-13.54L-1095.5,7793H-1082Z"/><path class="cls-7" d="M2035.13,592.37h-13.54L-1049.48,7793h13.53Z"/><path class="cls-7" d="M2081.15,592.37h-13.54L-1003.46,7793h13.53Z"/><path class="cls-7" d="M2127.17,592.37h-13.54L-957.44,7793h13.53Z"/><path class="cls-7" d="M2173.18,592.37h-13.53L-911.42,7793h13.53Z"/><path class="cls-7" d="M2219.2,592.37h-13.53L-865.41,7793h13.54Z"/><path class="cls-7" d="M2265.22,592.37h-13.53L-819.39,7793h13.54Z"/><path class="cls-7" d="M2311.24,592.37H2297.7L-773.37,7793h13.54Z"/><path class="cls-7" d="M2357.26,592.37h-13.54L-727.35,7793h13.53Z"/><path class="cls-7" d="M2403.28,592.37h-13.54L-681.33,7793h13.53Z"/><path class="cls-7" d="M2449.3,592.37h-13.54L-635.31,7793h13.53Z"/><path class="cls-7" d="M2495.32,592.37h-13.54L-589.29,7793h13.53Z"/><path class="cls-7" d="M1436.89,592.37h-13.54L-1647.72,7793h13.53Z"/><path class="cls-7" d="M1482.9,592.37h-13.53L-1601.7,7793h13.53Z"/><path class="cls-7" d="M1528.92,592.37h-13.53L-1555.68,7793h13.53Z"/><path class="cls-7" d="M1574.94,592.37h-13.53L-1509.67,7793h13.54Z"/><path class="cls-7" d="M1621,592.37h-13.53L-1463.65,7793h13.54Z"/><path class="cls-7" d="M1667,592.37h-13.54L-1417.63,7793h13.54Z"/><path class="cls-7" d="M1713,592.37h-13.54L-1371.61,7793h13.53Z"/><path class="cls-7" d="M1759,592.37h-13.54L-1325.59,7793h13.53Z"/><path class="cls-7" d="M1805,592.37H1791.5L-1279.57,7793H-1266Z"/><path class="cls-7" d="M1851.05,592.37h-13.53L-1233.55,7793H-1220Z"/><path class="cls-7" d="M1897.07,592.37h-13.53L-1187.54,7793H-1174Z"/><path class="cls-7" d="M1943.09,592.37h-13.53L-1141.52,7793H-1128Z"/><path class="cls-7" d="M1989.11,592.37h-13.54L-1095.5,7793H-1082Z"/><path class="cls-7" d="M3047.55,592.37H3034L-37.07,7793h13.54Z"/><path class="cls-7" d="M3093.57,592.37H3080L9,7793H22.49Z"/><path class="cls-7" d="M3139.58,592.37h-13.53L55,7793H68.51Z"/><path class="cls-7" d="M3185.6,592.37h-13.53L101,7793h13.54Z"/><path class="cls-7" d="M3231.62,592.37h-13.53L147,7793h13.54Z"/><path class="cls-7" d="M3277.64,592.37h-13.53L193,7793h13.54Z"/><path class="cls-7" d="M3323.66,592.37h-13.54L239.05,7793h13.54Z"/><path class="cls-7" d="M3369.68,592.37h-13.54L285.07,7793H298.6Z"/><path class="cls-7" d="M3415.7,592.37h-13.54L331.09,7793h13.53Z"/><path class="cls-7" d="M3461.68,592.37h-13.53L377.11,7793h13.53Z"/><path class="cls-7" d="M3507.74,592.37h-13.53L423.13,7793h13.53Z"/><path class="cls-7" d="M3553.72,592.37h-13.53L469.14,7793h13.54Z"/><path class="cls-7" d="M3599.78,592.37h-13.53L515.16,7793H528.7Z"/><path class="cls-7" d="M2541.34,592.37H2527.8L-543.28,7793h13.54Z"/><path class="cls-7" d="M2587.36,592.37h-13.54L-497.26,7793h13.54Z"/><path class="cls-7" d="M2633.37,592.37h-13.53L-451.24,7793h13.54Z"/><path class="cls-7" d="M2679.4,592.37h-13.54L-405.22,7793h13.54Z"/><path class="cls-7" d="M2725.41,592.37h-13.53L-359.2,7793h13.54Z"/><path class="cls-7" d="M2771.43,592.37H2757.9L-313.18,7793h13.53Z"/><path class="cls-7" d="M2817.45,592.37h-13.54L-267.16,7793h13.53Z"/><path class="cls-7" d="M2863.47,592.37h-13.54L-221.14,7793h13.53Z"/><path class="cls-7" d="M2909.49,592.37H2896L-175.12,7793h13.53Z"/><path class="cls-7" d="M2955.51,592.37H2942L-129.1,7793h13.53Z"/><path class="cls-7" d="M3001.53,592.37H2988L-83.09,7793h13.54Z"/><path class="cls-7" d="M3047.55,592.37H3034L-37.07,7793h13.54Z"/><path class="cls-7" d="M3093.57,592.37H3080L9,7793H22.49Z"/><path class="cls-7" d="M253.48-2171.71H239.94L-2831.13,5028.86h13.53Z"/><path class="cls-7" d="M299.5-2171.71H286L-2785.11,5028.86h13.53Z"/><path class="cls-7" d="M345.52-2171.71H332L-2739.1,5028.86h13.54Z"/><path class="cls-7" d="M391.54-2171.71H378L-2693.08,5028.86h13.54Z"/><path class="cls-7" d="M437.56-2171.71H424L-2647.06,5028.86h13.54Z"/><path class="cls-7" d="M483.58-2171.71H470L-2601,5028.86h13.54Z"/><path class="cls-7" d="M529.59-2171.71H516.06L-2555,5028.86h13.54Z"/><path class="cls-7" d="M575.61-2171.71H562.08L-2509,5028.86h13.54Z"/><path class="cls-7" d="M621.63-2171.71H608.1L-2463,5028.86h13.54Z"/><path class="cls-7" d="M667.65-2171.71H654.12L-2417,5028.86h13.54Z"/><path class="cls-7" d="M713.67-2171.71H700.13L-2370.94,5028.86h13.54Z"/><path class="cls-7" d="M759.69-2171.71H746.15L-2324.92,5028.86h13.53Z"/><path class="cls-7" d="M805.71-2171.71H792.17L-2278.9,5028.86h13.53Z"/><path class="cls-7" d="M23.38-2171.71H9.85L-3061.23,5028.86h13.54Z"/><path class="cls-7" d="M69.4-2171.71H55.87L-3015.21,5028.86h13.54Z"/><path class="cls-7" d="M115.42-2171.71H101.89L-2969.19,5028.86h13.54Z"/><path class="cls-7" d="M161.44-2171.71H147.9L-2923.17,5028.86h13.53Z"/><path class="cls-7" d="M207.46-2171.71H193.93L-2877.15,5028.86h13.53Z"/><path class="cls-7" d="M253.48-2171.71H239.94L-2831.13,5028.86h13.53Z"/><path class="cls-7" d="M299.5-2171.71H286L-2785.11,5028.86h13.53Z"/><g class="cls-13"><path class="cls-4" d="M9796.67-4462.76h-13.61L6712,2737.82h13.53Z"/><path class="cls-4" d="M9842.65-4462.76h-13.53L6758,2737.82h13.61Z"/><path class="cls-4" d="M9888.71-4462.76H9875.1l-3071,7200.58h13.53Z"/><path class="cls-4" d="M9934.69-4462.76h-13.53L6850,2737.82h13.61Z"/><path class="cls-4" d="M9980.75-4462.76h-13.61l-3071,7200.58h13.53Z"/><path class="cls-4" d="M10026.73-4462.76h-13.53L6942.08,2737.82h13.61Z"/><path class="cls-4" d="M10072.71-4462.76h-13.53l-3071,7200.58h13.53Z"/></g><g class="cls-13"><path class="cls-4" d="M10114.87-4462.76h-13.61l-3071,7200.58h13.53Z"/><path class="cls-4" d="M10160.85-4462.76h-13.53L7076.2,2737.82h13.61Z"/><path class="cls-4" d="M10206.91-4462.76h-13.61l-3071,7200.58h13.53Z"/><path class="cls-4" d="M10252.89-4462.76h-13.53L7168.24,2737.82h13.61Z"/><path class="cls-4" d="M10299-4462.76h-13.61l-3071,7200.58h13.53Z"/><path class="cls-4" d="M10344.93-4462.76h-13.53L7260.28,2737.82h13.61Z"/><path class="cls-4" d="M10390.91-4462.76h-13.53l-3071,7200.58h13.53Z"/></g><path class="cls-14" d="M3203,10780.43h-13.54l2823.4-6619.94h13.6Zm46,0h-13.53L6058.92,4160.49h13.52Zm46,0H3281.5L6104.9,4160.49h13.6Zm46,0h-13.53L6151,4160.49h13.53Zm46,0h-13.53L6196.93,4160.49h13.61Zm46,0h-13.57L6243,4160.49h13.53Zm46,0h-13.53L6289,4160.49h13.53Zm46.06,0h-13.53L6335,4160.49h13.53Zm46,0h-13.53L6381,4160.49h13.53Zm46.06,0h-13.61L6427.07,4160.49h13.53Zm46,0h-13.53l2823.4-6619.94h13.53Zm46.06,0h-13.61L6519.11,4160.49h13.53Zm46,0h-13.53l2823.4-6619.94h13.53Zm46.06,0h-13.61L6611.15,4160.49h13.53Zm46,0h-13.53l2823.4-6619.94h13.53Zm46.06,0h-13.61L6703.19,4160.49h13.53Zm46,0h-13.53l2823.4-6619.94h13.53Zm46.06,0h-13.61L6795.23,4160.49h13.53Zm46,0h-13.53l2823.4-6619.94h13.53Zm46,0h-13.53L6887.27,4160.49h13.53Zm46.06,0h-13.53l2823.4-6619.94h13.53Zm46,0h-13.53L6979.31,4160.49h13.53Zm46.06,0h-13.53l2823.4-6619.94h13.53Zm46,0h-13.53L7071.35,4160.49h13.53Zm46.06,0h-13.53l2823.4-6619.94h13.53Zm46,0h-13.53L7163.39,4160.49h13.52Zm46.06,0H4386l2823.4-6619.94h13.52Zm46,0H4432L7255.43,4160.49H7269Zm46.06,0H4478l2823.4-6619.94h13.53Zm46,0H4524L7347.47,4160.49H7361Zm46,0h-13.52l2823.4-6619.94H7407Zm46,0H4616l2823.4-6619.94H7453Zm46.06,0h-13.52l2823.4-6619.94H7499Zm46,0h-13.52l2823.4-6619.94h13.6Zm46.06,0h-13.52l2823.4-6619.94h13.52Zm46,0h-13.52l2823.4-6619.94h13.6Zm46.06,0h-13.52l2823.4-6619.94h13.52Zm46,0h-13.52l2823.4-6619.94h13.6Zm46.06,0h-13.52l2823.4-6619.94h13.52Zm46,0h-13.52l2823.4-6619.94h13.6Zm46.06,0h-13.52l2823.4-6619.94h13.52Zm46,0h-13.52l2823.4-6619.94h13.52Zm46.06,0h-13.52l2823.4-6619.94h13.52Z"/></g></svg>